<svg width="1130" height="217" viewBox="0 0 1130 217" fill="none" xmlns="http://www.w3.org/2000/svg">
<g clip-path="url(#clip0_158_1089)">
<path d="M140.044 28.0513H0.948242V76.3558H46.2939V182.121H94.7074V76.3558H140.044V28.0513Z" fill="white"/>
<path d="M1129.79 28.0513H1081.37V182.121H1129.79V90.2227V28.0513Z" fill="white"/>
<path d="M788.136 182.121H854.7L825.401 151.141C842.721 142.012 854.559 123.866 854.559 102.996V82.46C854.559 52.4505 830.096 28.0424 800.018 28.0424H699.69V182.112H748.104V157.404H764.76L788.127 182.112L788.136 182.121ZM748.113 76.3558H800.027C803.405 76.3558 806.154 79.0992 806.154 82.4688V103.004C806.154 106.374 803.405 109.118 800.027 109.118H748.113V76.3646V76.3558Z" fill="white"/>
<path d="M489.052 182.121V28.0513H440.638V107.177L383.587 28.0513H335.368V182.121H383.782V111.041L435.024 182.121H489.052Z" fill="white"/>
<path d="M618.68 28.0513H518.352V182.121H618.68C648.757 182.121 673.22 157.713 673.22 127.704V82.4689C673.22 52.4594 648.757 28.0513 618.68 28.0513ZM624.806 127.704C624.806 131.073 622.057 133.817 618.68 133.817H566.765V76.3558H618.68C622.057 76.3558 624.806 79.0992 624.806 82.4689V127.704Z" fill="white"/>
<path d="M306.069 28.0513L258.036 75.9765V127.704C258.036 131.073 255.286 133.817 251.909 133.817H221.894C218.517 133.817 215.767 131.073 215.767 127.704V28.0513H167.354V127.704C167.354 157.713 191.817 182.121 221.894 182.121H251.909C281.986 182.121 306.449 157.713 306.449 127.704V28.0513H306.069Z" fill="white"/>
<path d="M984.566 109.109H929.592V82.4689C929.592 79.0992 932.342 76.3558 935.719 76.3558H984.566L1032.98 28.0513H935.719C905.642 28.0513 881.179 52.4594 881.179 82.4689V182.121H929.592V157.413H984.566V182.121H1032.98V76.3558H984.566V109.109Z" fill="white"/>
</g>
<defs>
<clipPath id="clip0_158_1089">
<rect width="1129" height="217" fill="white" transform="translate(0.859375)"/>
</clipPath>
</defs>
</svg>
